<svg width="241" height="36" viewBox="0 0 241 36" fill="none" xmlns="http://www.w3.org/2000/svg">
<g clip-path="url(#clip0_1688_22667)">
<path d="M56.0804 7.23439C57.3029 7.23439 58.3518 7.43426 59.227 7.8343C60.1024 8.2342 60.8155 8.80016 61.3663 9.53204C61.9172 10.2641 62.3246 11.1054 62.5889 12.0563C62.8529 13.007 62.985 14.0258 62.985 15.1123V16.0632C62.985 18.8098 62.2833 20.8812 60.8797 22.2772C59.4761 23.6734 57.4084 24.3713 54.6768 24.3713C54.1184 24.3713 53.5676 24.3562 53.0243 24.3261C52.4809 24.2958 51.9527 24.2506 51.4395 24.1903V21.0888C51.9376 21.134 52.4734 21.1756 53.0468 21.2134C53.6203 21.251 54.209 21.2699 54.8126 21.2699C56.02 21.2699 56.9707 21.07 57.665 20.6699C58.3593 20.2701 58.8498 19.6701 59.1364 18.8704C59.4232 18.0704 59.5666 17.0819 59.5666 15.9047V14.1841L60.3816 13.6409C60.3665 14.7728 60.1364 15.7198 59.6911 16.4819C59.2459 17.2441 58.631 17.8139 57.8462 18.1911C57.0613 18.5685 56.1558 18.7571 55.1296 18.7571C53.9674 18.7571 52.9639 18.5269 52.1188 18.0667C51.2736 17.6063 50.6246 16.9612 50.1718 16.1311C49.7191 15.3009 49.4927 14.32 49.4927 13.1882C49.4927 11.9959 49.7643 10.9507 50.3076 10.0528C50.851 9.15482 51.6169 8.46061 52.6054 7.97011C53.5939 7.47962 54.7523 7.23439 56.0804 7.23439ZM56.1935 10.3132C55.5295 10.3132 54.9673 10.4338 54.507 10.6752C54.0468 10.9168 53.6921 11.2451 53.443 11.6601C53.1941 12.0751 53.0695 12.5619 53.0695 13.1203C53.0695 13.6937 53.1902 14.188 53.4317 14.603C53.6731 15.018 54.0165 15.3425 54.4618 15.5764C54.9069 15.8104 55.454 15.9274 56.103 15.9274C56.6915 15.9274 57.2311 15.8254 57.7216 15.6217C58.2121 15.4179 58.6007 15.1086 58.8875 14.6936C59.1742 14.2786 59.3176 13.7542 59.3176 13.1203C59.3176 12.5768 59.2006 12.0939 58.9667 11.6713C58.7328 11.2488 58.3819 10.9168 57.9141 10.6752C57.4463 10.4338 56.8727 10.3132 56.1935 10.3132Z" fill="black"/>
<path d="M71.4973 24.395C70.2447 24.395 69.2334 24.2402 68.4637 23.9309C67.694 23.6215 67.1319 23.1009 66.7773 22.3689C66.4226 21.637 66.2452 20.6446 66.2452 19.392V8.48047H69.6183V19.5278C69.6183 20.1164 69.773 20.5654 70.0824 20.8747C70.3917 21.1842 70.8331 21.3388 71.4067 21.3388H73.2404V24.395L71.4973 24.395ZM64.3663 14.4795V11.8309H73.2404V14.4795H64.3663Z" fill="black"/>
<path d="M75.6852 24.2367V7.71094H79.3074V17.2416H78.7639C78.7639 15.9889 78.9224 14.9325 79.2395 14.0722C79.5563 13.2119 80.0243 12.5592 80.643 12.1139C81.2618 11.6688 82.039 11.4461 82.9746 11.4461H83.1331C84.5066 11.4461 85.5555 11.9329 86.2798 12.9063C87.0043 13.8797 87.3665 15.3021 87.3665 17.1736V24.2367H83.7443V16.9472C83.7443 16.2681 83.5445 15.721 83.1444 15.3059C82.7445 14.8909 82.2201 14.6833 81.5711 14.6833C80.892 14.6833 80.3448 14.9022 79.9298 15.3399C79.5148 15.7776 79.3074 16.3585 79.3074 17.083V24.2366L75.6852 24.2367Z" fill="black"/>
<path d="M95.403 24.2367V7.71094H100.519L104.3 16.9925H104.729L108.465 7.71094H113.672V24.2367H110.004V10.1332L110.525 10.1785L106.156 20.8863H102.624L98.2325 10.1785L98.7983 10.1332V24.2367H95.403Z" fill="black"/>
<path d="M124.674 24.2383V20.5709H124.062V16.5866C124.062 15.9527 123.911 15.4774 123.61 15.1605C123.308 14.8435 122.825 14.685 122.161 14.685C121.829 14.685 121.391 14.6925 120.848 14.7077C120.304 14.7228 119.746 14.7453 119.173 14.7756C118.599 14.8058 118.078 14.8359 117.61 14.8662V11.8099C117.958 11.7799 118.365 11.7496 118.833 11.7195C119.301 11.6893 119.784 11.6666 120.282 11.6516C120.78 11.6365 121.248 11.6289 121.685 11.6289C122.953 11.6289 124.021 11.8099 124.889 12.1722C125.757 12.5344 126.417 13.0815 126.869 13.8134C127.322 14.5455 127.549 15.4849 127.549 16.632V24.2383L124.674 24.2383ZM120.712 24.5551C119.822 24.5551 119.04 24.3968 118.369 24.0798C117.697 23.7629 117.173 23.3064 116.796 22.7102C116.418 22.1141 116.23 21.4009 116.23 20.5709C116.23 19.6654 116.464 18.9221 116.931 18.3411C117.399 17.76 118.056 17.3299 118.901 17.0507C119.746 16.7715 120.72 16.632 121.821 16.632H124.47V18.6467H121.799C121.165 18.6467 120.678 18.8014 120.338 19.1108C119.999 19.4201 119.829 19.839 119.829 20.3671C119.829 20.8652 119.999 21.2689 120.338 21.5782C120.678 21.8877 121.165 22.0423 121.799 22.0423C122.206 22.0423 122.572 21.9707 122.896 21.8273C123.221 21.684 123.489 21.4387 123.7 21.0916C123.911 20.7445 124.032 20.2616 124.062 19.6428L124.923 20.5483C124.847 21.4085 124.64 22.1329 124.3 22.7216C123.96 23.3101 123.493 23.7629 122.896 24.0798C122.3 24.3968 121.572 24.5551 120.712 24.5551Z" fill="black"/>
<path d="M130.627 24.236V11.8304H133.502V17.1503H133.434C133.434 15.3996 133.808 14.0489 134.555 13.0981C135.302 12.1472 136.385 11.6719 137.803 11.6719H138.279V14.796H137.373C136.377 14.796 135.607 15.0638 135.064 15.5997C134.521 16.1354 134.249 16.9089 134.249 17.92V24.236L130.627 24.236Z" fill="black"/>
<path d="M148.897 24.2367L144.98 18.4414H143.237L148.285 11.831H152.089L147.335 17.9885L147.38 16.2227L152.972 24.2366L148.897 24.2367ZM140.158 24.2367V7.71094H143.781V24.2367H140.158Z" fill="black"/>
<path d="M160.306 24.6683C159.25 24.6683 158.318 24.4871 157.51 24.125C156.703 23.7628 156.031 23.276 155.495 22.6648C154.96 22.0536 154.552 21.3668 154.273 20.6047C153.994 19.8426 153.854 19.0616 153.854 18.2617V17.809C153.854 16.9789 153.994 16.1827 154.273 15.4206C154.552 14.6584 154.956 13.9755 155.484 13.3719C156.012 12.7682 156.673 12.289 157.465 11.9344C158.257 11.5797 159.159 11.4023 160.17 11.4023C161.498 11.4023 162.619 11.7004 163.532 12.2966C164.445 12.8926 165.143 13.6699 165.626 14.6283C166.109 15.5866 166.35 16.6318 166.35 17.7636V18.9861H155.371V16.926H164.154L162.977 17.8769C162.977 17.1373 162.872 16.5034 162.66 15.9753C162.449 15.447 162.136 15.0434 161.721 14.7642C161.306 14.485 160.789 14.3453 160.17 14.3453C159.536 14.3453 159.001 14.4887 158.563 14.7754C158.125 15.0622 157.793 15.4809 157.567 16.0319C157.34 16.5827 157.227 17.2581 157.227 18.0579C157.227 18.7975 157.333 19.4427 157.544 19.9935C157.755 20.5443 158.087 20.9708 158.54 21.2725C158.993 21.5744 159.582 21.7253 160.306 21.7253C160.97 21.7253 161.513 21.5971 161.936 21.3404C162.359 21.0839 162.645 20.767 162.796 20.3897H166.124C165.943 21.2197 165.588 21.9593 165.06 22.6082C164.532 23.2572 163.868 23.7628 163.068 24.125C162.268 24.4871 161.347 24.6683 160.306 24.6683Z" fill="black"/>
<path d="M174.386 24.395C173.134 24.395 172.123 24.2402 171.353 23.9309C170.583 23.6215 170.021 23.1009 169.666 22.3689C169.312 21.637 169.134 20.6446 169.134 19.392V8.48047H172.508V19.5278C172.508 20.1164 172.662 20.5654 172.972 20.8747C173.281 21.1842 173.722 21.3388 174.296 21.3388H176.13V24.395L174.386 24.395ZM167.255 14.4795V11.8309H176.13V14.4795H167.255Z" fill="black"/>
<path d="M178.574 28.7642V11.831H181.449V17.1961L181.065 17.1736C181.125 15.936 181.381 14.8909 181.834 14.0382C182.287 13.1855 182.898 12.544 183.668 12.1139C184.438 11.6839 185.305 11.4688 186.271 11.4688C187.132 11.4688 187.913 11.6273 188.614 11.9441C189.316 12.2611 189.92 12.7025 190.425 13.2685C190.931 13.8345 191.316 14.4984 191.58 15.2607C191.844 16.0229 191.976 16.8566 191.976 17.7621V18.2828C191.976 19.1732 191.848 20.0071 191.591 20.7844C191.335 21.5616 190.961 22.237 190.471 22.8104C189.98 23.3839 189.384 23.8329 188.682 24.1575C187.981 24.4819 187.177 24.6441 186.271 24.6441C185.336 24.6441 184.494 24.4516 183.747 24.0669C183 23.6819 182.4 23.0935 181.947 22.3011C181.495 21.5087 181.246 20.5013 181.2 19.2789L182.197 20.6371V28.7642L178.574 28.7642ZM185.253 21.6106C185.871 21.6106 186.411 21.4598 186.871 21.1579C187.332 20.856 187.69 20.4334 187.947 19.8902C188.203 19.3469 188.331 18.7206 188.331 18.0112C188.331 17.3019 188.203 16.6831 187.947 16.1548C187.69 15.6267 187.335 15.2154 186.883 14.921C186.43 14.6269 185.886 14.4796 185.253 14.4796C184.709 14.4796 184.196 14.6079 183.713 14.8646C183.23 15.1211 182.842 15.487 182.547 15.9625C182.253 16.4379 182.106 17.0151 182.106 17.6942V18.5318C182.106 19.1808 182.261 19.7355 182.57 20.1958C182.879 20.6561 183.276 21.007 183.758 21.2485C184.242 21.4899 184.739 21.6106 185.253 21.6106Z" fill="black"/>
<path d="M194.648 24.2367V7.71097H198.27L198.293 24.2367H194.648ZM193.176 10.3822V7.71094L198.27 7.71097L198.293 10.3822H193.176Z" fill="black"/>
<path d="M209.113 24.2383V20.5709H208.502V16.5866C208.502 15.9527 208.351 15.4774 208.049 15.1605C207.747 14.8435 207.264 14.685 206.6 14.685C206.268 14.685 205.83 14.6925 205.287 14.7077C204.744 14.7228 204.185 14.7453 203.612 14.7756C203.038 14.8058 202.518 14.8359 202.05 14.8662V11.8099C202.397 11.7799 202.805 11.7496 203.272 11.7195C203.74 11.6893 204.223 11.6666 204.721 11.6516C205.219 11.6365 205.687 11.6289 206.125 11.6289C207.392 11.6289 208.46 11.8099 209.328 12.1722C210.196 12.5344 210.856 13.0815 211.309 13.8134C211.762 14.5455 211.988 15.4849 211.988 16.632V24.2383L209.113 24.2383ZM205.151 24.5551C204.261 24.5551 203.48 24.3968 202.808 24.0798C202.137 23.7629 201.612 23.3064 201.235 22.7102C200.858 22.1141 200.669 21.4009 200.669 20.5709C200.669 19.6654 200.903 18.9221 201.371 18.3411C201.839 17.76 202.495 17.3299 203.34 17.0507C204.185 16.7715 205.159 16.632 206.261 16.632H208.909V18.6467H206.238C205.604 18.6467 205.117 18.8014 204.778 19.1108C204.438 19.4201 204.268 19.839 204.268 20.3671C204.268 20.8652 204.438 21.2689 204.778 21.5782C205.117 21.8877 205.604 22.0423 206.238 22.0423C206.645 22.0423 207.011 21.9707 207.336 21.8273C207.66 21.684 207.928 21.4387 208.139 21.0916C208.351 20.7445 208.472 20.2616 208.502 19.6428L209.362 20.5483C209.286 21.4085 209.079 22.1329 208.739 22.7216C208.4 23.3101 207.932 23.7629 207.336 24.0798C206.74 24.3968 206.012 24.5551 205.151 24.5551Z" fill="black"/>
<path d="M220.636 24.6683C219.565 24.6683 218.633 24.4909 217.84 24.1363C217.048 23.7816 216.388 23.3024 215.859 22.6988C215.331 22.0951 214.939 21.4122 214.682 20.6501C214.426 19.8879 214.297 19.0993 214.297 18.2843V17.8542C214.297 17.009 214.433 16.1978 214.705 15.4206C214.977 14.6433 215.377 13.953 215.905 13.3492C216.433 12.7456 217.093 12.2702 217.886 11.9231C218.678 11.576 219.587 11.4023 220.613 11.4023C221.73 11.4023 222.719 11.6175 223.579 12.0475C224.439 12.4776 225.126 13.0775 225.639 13.8472C226.152 14.6169 226.439 15.4999 226.499 16.4959H222.945C222.885 15.9375 222.662 15.466 222.277 15.081C221.893 14.6963 221.338 14.5038 220.613 14.5038C220.01 14.5038 219.508 14.6547 219.108 14.9565C218.708 15.2584 218.41 15.6734 218.214 16.2017C218.018 16.7298 217.92 17.3561 217.92 18.0806C217.92 18.7446 218.01 19.3445 218.191 19.8804C218.372 20.4161 218.663 20.8311 219.063 21.1254C219.463 21.4197 219.987 21.5668 220.636 21.5668C221.119 21.5668 221.53 21.4801 221.87 21.3065C222.209 21.133 222.481 20.8914 222.685 20.5821C222.889 20.2727 223.013 19.9143 223.058 19.5069H226.59C226.545 20.5331 226.258 21.4347 225.73 22.212C225.201 22.9892 224.5 23.593 223.624 24.0231C222.749 24.4531 221.753 24.6683 220.636 24.6683Z" fill="black"/>
<path d="M234.581 24.6683C233.524 24.6683 232.592 24.4871 231.785 24.125C230.978 23.7628 230.306 23.276 229.77 22.6648C229.234 22.0536 228.827 21.3668 228.548 20.6047C228.269 19.8426 228.129 19.0616 228.129 18.2617V17.809C228.129 16.9789 228.269 16.1827 228.548 15.4206C228.827 14.6584 229.231 13.9755 229.759 13.3719C230.287 12.7682 230.947 12.289 231.74 11.9344C232.532 11.5797 233.434 11.4023 234.445 11.4023C235.773 11.4023 236.894 11.7004 237.807 12.2966C238.72 12.8926 239.418 13.6699 239.901 14.6283C240.384 15.5866 240.625 16.6318 240.625 17.7636V18.9861H229.646V16.926H238.429L237.252 17.8769C237.252 17.1373 237.146 16.5034 236.935 15.9753C236.724 15.447 236.411 15.0434 235.996 14.7642C235.581 14.485 235.064 14.3453 234.445 14.3453C233.811 14.3453 233.275 14.4887 232.838 14.7754C232.4 15.0622 232.068 15.4809 231.842 16.0319C231.615 16.5827 231.502 17.2581 231.502 18.0579C231.502 18.7975 231.608 19.4427 231.819 19.9935C232.03 20.5443 232.362 20.9708 232.815 21.2725C233.268 21.5744 233.856 21.7253 234.581 21.7253C235.245 21.7253 235.788 21.5971 236.211 21.3404C236.633 21.0839 236.92 20.767 237.071 20.3897H240.399C240.218 21.2197 239.863 21.9593 239.335 22.6082C238.807 23.2572 238.143 23.7628 237.343 24.125C236.543 24.4871 235.622 24.6683 234.581 24.6683Z" fill="black"/>
<path fill-rule="evenodd" clip-rule="evenodd" d="M14.2229 8.05927L6.08521 0H36.5642V30.1857L28.09 21.7931L28.2118 21.9136V8.05927H14.2229Z" fill="#FF0000"/>
<path fill-rule="evenodd" clip-rule="evenodd" d="M7.21337 17.4489L-0.00012207 10.3047H14.5595V21.7931H25.9447V35.9999L18.7312 28.8558H7.21339L7.21337 17.4489ZM16.8749 10.3047H25.9447V19.4567H16.8749V10.3047Z" fill="#9A0019"/>
<path fill-rule="evenodd" clip-rule="evenodd" d="M25.9448 19.4567H16.875V10.3047H25.9448V19.4567Z" fill="#FF0000"/>
</g>
<defs>
<clipPath id="clip0_1688_22667">
<rect width="240.626" height="36" fill="white"/>
</clipPath>
</defs>
</svg>
